<?xml version="1.0" encoding="UTF-8" standalone="no"?>
<svg
   xmlns:dc="http://purl.org/dc/elements/1.1/"
   xmlns:cc="http://creativecommons.org/ns#"
   xmlns:rdf="http://www.w3.org/1999/02/22-rdf-syntax-ns#"
   xmlns:svg="http://www.w3.org/2000/svg"
   xmlns="http://www.w3.org/2000/svg"
   viewBox="0 0 576 576"
   id="svg2"
   height="576"
   width="576"
   version="1.1">
  <metadata
     id="metadata48">
    <rdf:RDF>
      <cc:Work
         rdf:about="">
        <dc:format>image/svg+xml</dc:format>
        <dc:type
           rdf:resource="http://purl.org/dc/dcmitype/StillImage" />
      </cc:Work>
    </rdf:RDF>
  </metadata>
  <defs
     id="defs46" />
  <g
     id="g4">
    <path
       id="path6"
       style="fill:#000200;fill-rule:evenodd"
       d="m 427.1265,101.2368 c -0.2872,6.0311 -33.1909,37.833 -37.9539,46.3697 l -3.6364,-1.1519 c 1.798,1.748 0.2815,-0.9872 1.4164,2.7566 l -12.0141,12.1419 c -7.227,7.6021 -9.5626,10.2737 -17.6525,16.5416 -5.0697,3.9279 -10.5511,9.2411 -15.6539,13.4783 -3.8703,3.2138 -12.2704,11.0171 -16.1413,12.9757 -1.8821,2.4688 -15.2562,13.7249 -18.3925,15.3088 -15.0251,15.7569 -60.6923,39.3007 -78.6354,48.4269 -14.4227,7.3357 -27.0845,15.2899 -46.4897,17.3934 -9.8643,1.069 -19.3513,1.7882 -28.72,-0.5691 -10.9308,-2.7502 -13.9003,-7.1008 -19.1161,-12.6476 -2.4382,5.054 3.8574,-3.9638 -2.7409,11.1491 -1.8358,4.2054 -3.5154,8.1815 -4.7954,12.9804 -2.015,7.5556 -2.22,23.9926 1.7549,30.1068 9.0528,13.9255 22.3314,25.5885 47.9894,24.646 11.5052,-1.7316 29.9759,-7.8471 37.2432,-5.67 2.2049,0.6607 2.9049,1.8343 4.7102,2.9005 3.801,2.2452 2.4297,0.4131 4.3663,0.9834 0.9188,5.6643 -2.3271,13.8804 -3.8559,19.1391 -7.2239,24.8522 0.7243,43.7265 2.5714,63.3427 -5.5635,1.9589 4.3732,-2.6967 -1.6434,-0.8332 0.8398,5.0739 3.3772,11.0864 5.2946,15.527 2.3998,5.5582 5.5887,9.5396 7.9113,14.1408 1.6674,0.4935 1.7826,0.9161 4.321,1.6598 0.0938,-5.1192 0.2437,-4.9768 5.1699,-4.2211 2.3314,-3.0696 2.3743,-9.8961 2.6303,-15.3699 0.3001,-6.4178 7.9072,-39.0613 9.5169,-45.9795 3.9425,-16.9443 14.3131,-37.8912 27.246,-46.4834 1.3462,-2.4083 0.5243,-1.3553 2.9698,-3.3718 l 9.7418,-6.8483 c 22.9081,-12.2468 34.3789,0.9538 46.4799,10.4387 18.4073,14.428 33.5952,35.6111 56.4865,28.7165 20.7136,-13.893 18.2005,-64.2697 6.9547,-83.8676 -18.6186,-32.4461 -57.5924,-10.5675 -83.4494,-9.1744 l 38.8082,-39.1155 c 2.0043,-2.141 10.9201,-11.8906 12.5068,-12.6788 l 4.099,-5.9893 c 3.397,-1.9916 17.3672,-20.2554 21.0631,-25.3349 7.0479,-9.6851 12.5541,-17.7111 18.5188,-28.2467 7.5331,-10.068 14.0369,-22.8895 20.7643,-33.7432 2.3087,-6.449 6.9575,-12.4045 9.7282,-19.1867 3.9229,-8.048 8.9829,-20.1149 7.8881,-31.0395 -0.5794,-3.0988 -1.2117,-2.5002 -4.7502,-3.169 -7.6097,0.2919 -8.5295,1.98 -12.9241,5.537 -0.6849,0.5542 -0.6222,0.4859 -1.4252,1.0908 -0.1401,0.1058 -0.3498,0.2406 -0.4884,0.3467 -5.3541,4.0936 -1.9942,5.4552 -7.6723,6.5932 z" />
    <path
       id="path8"
       style="fill:#000200;fill-rule:evenodd"
       d="m 143.6726,119.8639 c -1.6859,1.7911 -12.3497,5.8113 -18.3097,9.4102 l -16.5765,10.9665 c 0.7658,7.9459 -20.5102,13.6171 -14.9375,51.4514 1.0294,6.9887 -0.9608,6.1262 5.452,16.4074 11.1821,17.9277 28.3765,33.5174 51.0027,42.6036 7.4903,4.0271 22.4956,6.7532 31.89,5.6243 6.039,-0.7255 5.0503,-1.4775 8.5254,-4.0678 -1.0086,-9.1832 -7.0643,-10.3155 -10.0277,-15.6013 -14.8749,-10.8899 -31.3595,-19.6149 -37.8188,-36.4049 -9.6946,-25.2002 5.8422,-38.163 22.1526,-46.3168 51.926,-25.9588 92.9705,30.6295 93.8214,41.2102 1.5615,-2.8549 -0.195,-2.1164 2.025,-2.9229 0.4972,3.8571 0.4226,4.5263 -1.3956,6.8603 -1.0391,2.0357 -6.3913,6.2027 -8.4784,8.3131 -4.4507,4.4998 -3.563,6.2062 -3.5249,13.8757 5.6655,-1.1676 12.1044,-2.8614 18.8336,-4.2136 29.1193,-5.8516 10.0303,-38.51 9.0692,-43.3332 -8.7662,-19.7871 -30.0926,-39.4046 -49.3923,-48.8803 -41.0253,-20.1433 -76.2176,-4.7835 -82.3105,-4.9819 z" />
    <path
       id="path10"
       style="fill:#000200;fill-rule:evenodd"
       d="m 128.578,473.7446 c -2.9537,4.2126 -5.3337,6.3262 -8.0288,11.6009 -1.1554,2.2616 -4.993,13.7831 -5.3437,14.2429 -0.9513,15.1752 -0.8436,26.87 7.1175,38.0291 14.5798,20.4365 44.0942,24.8365 67.508,19.6455 10.6484,-2.3611 25.2005,-8.9335 28.811,-15.481 2.0767,-3.2866 3.774,-4.4797 5.5717,-7.8912 1.4964,-2.8391 3.1348,-6.227 4.1415,-9.3649 2.2086,-6.8835 3.0825,-15.1381 2.5138,-23.3099 -2.8023,-37.8203 -44.3651,-49.3621 -75.6613,-41.201 -17.5492,4.5763 -17.7492,8.6598 -26.6297,13.7296 z m 21.9026,47.5042 c 2.8173,6.352 7.0967,10.2532 14.2136,12.4379 7.0431,2.1621 17.4497,1.0915 21.5631,-3.557 -6.9178,-4.1723 -25.1561,-8.4523 -34.9029,-10.0746 -1.2649,0.8958 -1.6488,-0.706 -0.8738,1.1937 z m 5.384,-31.5528 12.3075,5.487 c 4.8821,2.6385 -0.0579,2.7053 6.6735,5.0166 6.904,2.3705 15.949,6.1523 22.8366,7.6531 0.2667,-11.7902 -5.3072,-20.24 -13.284,-23.8168 -10.6027,-4.7539 -23.4475,-1.1824 -28.5336,5.6601 z m -5.384,31.5528 c -0.775,-1.8997 -0.3911,-0.2979 0.8738,-1.1937 9.7468,1.6223 27.9851,5.9023 34.9029,10.0746 6.2251,-2.8038 11.4051,-12.5462 11.4249,-22.277 -6.8876,-1.5008 -15.9326,-5.2826 -22.8366,-7.6531 -6.7314,-2.3113 -1.7914,-2.3781 -6.6735,-5.0166 l -12.3075,-5.487 c -6.7359,5.9953 -11.0442,20.8708 -5.384,31.5528 z" />
    <path
       id="path12"
       style="fill:#000200;fill-rule:evenodd"
       d="m 472.1639,462.1559 1.052,32.1706 c -0.0482,1.4983 -0.0652,3.6021 -0.2002,5.0374 l -1.1204,4.4976 c 1.9718,6.9843 -2.2887,43.028 -2.7585,53.2683 l 33.8751,-0.0901 2.0112,-48.3598 c 1.7978,1.4999 12.6634,20.4737 14.6321,23.8798 2.6747,4.6274 4.8078,8.362 7.2715,12.7059 8.7785,15.4779 -0.7356,11.8633 44.5732,11.8519 -1.9321,-4.7098 -5.6494,-9.238 -8.5565,-13.6345 -2.8904,-4.3719 -5.1463,-8.1151 -8.19,-12.6577 l -16.4837,-25.1072 c 3.2188,-5.948 12.283,-16.7318 17.1059,-23.1477 3.8168,-5.0773 14.741,-18.2442 16.7973,-23.1997 l -36.194,-0.0674 c -5.4014,9.8725 -23.1364,34.4117 -30.541,43.1455 l 2.4728,-43.0485 -33.1219,-0.034 c -1.8579,3.8156 0.3521,1.5666 -2.6249,2.7896 z" />
    <path
       id="path14"
       style="fill:#000200;fill-rule:evenodd"
       d="m 338.5197,502.0445 c -0.2768,6.654 -1.8701,42.7822 -3.3397,45.7421 l -0.3388,9.4962 c 13.5384,0.002 27.0885,-0.1077 40.6311,-0.1162 8.0974,-0.005 33.6666,1.0313 39.761,-0.4531 l 1.0697,-24.4211 -6.3079,0.9066 c -0.7938,0.1949 -29.9635,1.4926 -33.1719,-0.4595 -2.3277,0.9935 -4.6778,1.9527 -7.0341,0.6711 -0.831,-1.8544 -1.1852,-10.9668 0.5057,-12.4464 1.0099,-1.4901 0.2501,-0.8594 2.6549,-1.1878 l 28.6753,0.0809 7.1732,-0.09 c 1.6239,-2.6064 0.2019,-4.1119 3.2689,-6.9122 -2.8876,-0.7847 -1.4391,1.712 -1.8412,-3.4238 -0.1722,-2.1974 1.0152,-7.9511 0.3341,-13.8546 l -18.258,0.3882 -20.8871,-0.3089 0.9891,-12.7859 33.8949,0.0766 c 3.5567,0.3382 -0.6688,0.4336 0,2.1157 2.0219,-0.9629 3.062,-2.0197 5.6498,-1.1774 l 6.7151,-0.4692 0.3901,-5.139 0.8647,-18.9483 -80.1563,-0.009 -1.2426,42.7248 z" />
    <path
       id="path16"
       style="fill:#000200;fill-rule:evenodd"
       d="M 58.7643,459.5801 C 1.01,471.2456 -5.417,569.4358 88.3181,558.1041 c 2.0367,-0.2463 4.0268,-0.3817 6.0582,-0.638 0.0882,-0.0113 2.7991,-0.4494 2.8551,-0.4632 2.4253,-0.6065 0.8745,0.1011 2.8319,-1.0146 l 3.4776,-24.8956 c -11.536,0.9128 -20.7979,5.686 -34.3203,2.9464 -9.5812,-1.941 -17.2325,-9.0368 -18.5185,-18.9999 -1.5502,-12.0087 4.0145,-21.7742 10.6427,-26.5605 10.3033,-7.4403 16.2207,-5.9379 29.7888,-5.3985 l 14.2567,2.2892 -1.252,-24.3701 c -8.9782,-4.9085 -25.2924,-0.5129 -34.3928,-3.4622 l -10.9812,2.043 z" />
    <path
       id="path18"
       style="fill:#000200;fill-rule:evenodd"
       d="m 237.2638,462.3335 c 2.3119,1.3349 1.2548,4.2344 1.0511,10.3285 -0.1253,3.7425 -0.2614,7.4069 -0.2119,11.2599 l 29.226,-0.8612 -1.3735,37.0476 c -0.1323,5.2917 -1.0637,26.6131 -2.4382,29.8958 l -0.2542,7.3017 34.1746,-0.1508 0.0592,-6.5923 1.2718,-45.0821 1.4807,-22.6023 29.2226,0.6846 0.8779,-24.2193 c -14.5181,-0.6253 -30.2051,0.0369 -44.8579,0.0407 l -33.3282,-0.0832 c -1.7001,0.007 -4.3143,0.1515 -5.9007,0.0353 -4.2404,-0.3111 -3.4229,-0.8307 -3.8294,-1.224 -4.9262,-0.7557 -5.0761,-0.8981 -5.1699,4.2211 z" />
    <path
       id="path20"
       style="fill:#c40103;fill-rule:evenodd"
       d="m 185.2878,235.0828 c 3.4071,0.9377 7.7759,3.631 11.2388,4.9208 7.6024,2.8315 35.0361,6.0352 41.1311,1.0439 0.0271,-3.7406 -1.5146,-5.2046 -4.9614,-6.5828 -17.8169,-7.1241 -26.9551,1.5558 -27.3619,-4.9073 -7.5965,0.7828 -17.5392,-11.0332 -20.2554,-16.4049 -13.7406,-27.1739 17.2734,-34.1799 33.1373,-23.9098 11.8302,7.6588 11.7669,15.7544 15.59,20.2627 -0.4982,-3.6332 -1.3201,-3.2953 -1.7543,-6.9157 2.8841,2.3428 2.8684,3.5958 4.2681,7.6116 1.0646,3.0545 1.9328,6.1565 1.5092,9.8879 -2.0691,-0.8272 -0.3234,0.2406 -1.4233,-1.6708 l -0.9976,-2.4757 c -0.0289,6.9648 -1.8616,6.1637 -7.7328,8.4029 -1.9148,1.7508 -2.2974,2.4256 -3.1256,5.038 l 2.4319,1.3414 c 1.492,0.581 1.0401,0.3196 2.6511,0.6764 1.935,0.4282 3.7453,0.9403 5.2436,1.1783 14.9794,2.3806 13.8275,-18.3887 11.8305,-23.8713 -11.2117,-50.537 -70.2297,-51.3815 -84.0506,-31.2987 -6.2031,9.0132 2.9058,31.3053 2.5827,33.2337 l -0.3322,0.7743 c -2.691,5.4083 0.398,-3.5346 -1.0983,1.4029 1.8119,1.9901 2.9776,4.6387 4.6925,6.9059 6.8593,9.0685 9.4726,9.1769 16.7866,15.3563 z" />
    <path
       id="path22"
       style="fill:#000200;fill-rule:evenodd"
       d="m 464.9481,518.5341 0.002,-11.0511 -21.4303,0.3398 -18.7971,-0.3253 -0.8389,22.4036 39.6572,0.0391 c 0.6279,-3.6383 0.0167,-8.9159 1.4072,-11.4061 z" />
    <g
       id="g24">
      <path
         id="path26"
         style="fill:#009800;fill-rule:evenodd"
         d="m 235.6537,21.5163 6.4024,0.5111 c -3.4701,1.5298 -11.053,2.1803 -15.4492,3.3391 -34.2838,9.0365 -37.2259,10.5958 -65.1275,26.6188 -2.8756,1.6513 -1.3521,0.5529 -2.4051,1.8761 -2.2603,2.84 1.958,-0.1675 -2.0956,2.7682 -0.3763,0.2727 -2.7323,1.2693 -3.4191,1.5842 l -11.9776,6.4966 c -2.8466,1.8773 -4.6654,0.9616 -4.9286,0.226 -0.1156,-0.3233 -0.4431,-0.2985 -0.6868,-0.4043 -0.797,3.9718 -8.0373,7.2057 -14.6053,14.5206 l -2.0308,-1.7876 c -0.0705,-0.2869 -0.3064,-0.3206 -0.4685,-0.4717 l -0.6717,1.1559 c -0.1159,0.1934 -0.5095,0.883 -0.6461,1.0905 -0.5527,0.8398 -0.3379,0.7205 -1.4284,1.8122 -0.9651,0.9664 -2.5305,2.0774 -3.6578,3.0176 -14.7001,12.2629 -31.8752,30.1814 -43.0076,45.3082 -4.992,6.7831 -16.1086,22.8196 -20.2985,30.5832 -3.1209,5.7837 -6.074,10.8333 -8.8025,16.2251 l -7.8676,16.4427 c 0.9608,-2.6734 1.4277,-1.9463 1.5912,-5.5219 -5.2767,6.4496 -14.9366,39.262 -17.9643,50.4513 -1.5382,5.6848 -2.4054,13.5363 -3.8023,18.0824 -1.0391,31.0672 -1.9646,33.4547 -0.0784,64.7867 1.0637,17.6645 1.9929,3.4062 3.8181,19.5639 0.2745,2.4316 0.3926,8.3469 0.8498,10.2299 1.1075,4.5615 0.7331,-1.6941 3.5593,7.7662 1.6239,5.4363 4.0079,11.6642 5.9804,17.2504 3.5954,10.1823 9.5541,24.491 10.8729,35.1394 4.2268,2.0014 3.2786,-0.0567 5.5648,4.3694 1.2907,2.4987 2.0886,4.1619 3.3381,6.6518 2.3255,4.6336 4.3965,8.4019 6.7919,13.2314 1.685,3.3977 2.1369,3.6175 3.9103,6.062 1.8403,2.5361 1.7351,3.3278 4.3273,5.63 12.397,11.0095 3.3838,5.7653 8.5046,11.4154 9.1004,2.9493 25.4146,-1.4463 34.3928,3.4622 l 1.252,24.3701 -14.2567,-2.2892 c 1.9353,3.5299 -0.4349,0.9673 2.8145,2.8702 l 16.3419,9.5932 c 2.9499,1.8994 1.4573,2.9216 4.9158,3.9113 0.3508,-0.4598 4.1883,-11.9814 5.3437,-14.2429 2.6951,-5.2748 5.0751,-7.3883 8.0288,-11.6009 -6.421,-2.3139 -4.0328,-3.4985 -7.4815,-6.4865 -2.1382,-1.8525 -5.7616,-3.5901 -7.8903,-5.4378 -3.4578,-3.0019 -0.7752,-3.0114 -6.4581,-6.8763 -17.2989,-11.7647 -4.6525,-6.7296 -14.0026,-12.6615 -14.6393,-9.2871 -5.2546,-4.2643 -12.1586,-14.5543 -3.529,-5.26 -2.851,-3.302 -2.5024,-10.5158 -6.4685,-0.1401 0.8417,0.7343 -5.1079,1.4661 -0.8946,-2.1013 -1.3959,-2.3828 -2.5154,-4.2324 -3.1983,-5.2842 0.9054,-2.2698 -3.028,-7.6582 L 55.9964,387.1613 c -5.9886,-12.6019 -10.6172,-22.4319 -10.0215,-39.4704 -3.1435,-2.1463 -5.1614,-0.2361 -4.3429,-4.7879 -0.8002,-0.8638 -0.5281,-0.3732 -1.2376,-1.7244 -0.6896,-1.314 -0.3057,-0.4414 -0.7532,-1.9671 l -2.0962,-12.191 c -3.473,-31.5515 -0.4661,-89.8059 10.1703,-116.3456 1.6948,-10.5942 12.3665,-29.7368 16.9248,-37.9504 3.6512,-6.5793 22.9969,-35.6335 29.2418,-39.1495 4.1358,-2.3287 14.7341,-16.9721 18.5645,-21.4187 4.7104,-5.4684 10.9425,-5.6485 13.4632,-7.3798 8.1664,-5.6101 10.1719,-14.9472 18.4617,-11.6686 -0.4342,-2.504 -0.8505,-1.4686 -1.405,-4.4692 8.6863,-0.5596 0.985,-1.5509 12.5544,-1.1925 3.0431,-6.2686 3.4144,-0.5804 5.0191,-7.9721 6.7443,1.0533 3.4336,-0.4714 6.2418,-3.7819 1.4607,-1.7225 -0.6371,0.6713 0.8785,-0.8008 5.6177,-5.457 3.147,-3.2673 5.6857,-3.3129 8.5276,-0.1537 42.284,-15.3129 49.995,-17.5896 11.1526,-3.2928 27.8053,-5.1019 40.4727,-5.3207 7.514,-0.1297 15.0317,-0.2166 22.5463,-0.034 6.9185,0.1681 14.5203,1.1966 21.742,0.9673 l 1.5518,-4.3653 4.9986,0.0371 1.6654,3.9296 5.8331,-0.4632 c 2.1507,3.124 -2.7043,-3.9267 0.7501,1.6516 0.871,1.4069 0.8451,1.7316 3.9701,2.6271 10.0208,2.8722 6.4059,-0.665 7.6711,-7.9894 2.8973,1.3773 4.7971,5.1236 6.0229,7.7265 l -1.2646,0.3889 c -0.2862,0.1187 -2.168,-0.2384 -3.0091,2.9439 2.2317,3.4909 15.3132,3.8055 21.6224,5.8771 4.0429,1.3279 2.6296,1.0587 4.2283,4.6069 14.212,2.6832 11.3787,4.4239 14.9968,0.2368 2.8387,0.2853 4.0844,0.0872 6.6901,0.1023 5.6067,0.0318 4.6526,1.2817 5.3069,1.8941 3.1414,-0.1873 3.119,1.0442 5.1737,-0.2182 l 0.1367,-4.9583 c -0.1915,-3.3926 -0.8887,-5.8466 -2.3687,-8.4501 -4.8735,-8.5742 -0.3171,0.4635 0.005,-6.5891 -5.1517,-1.8689 -3.4431,0.7844 -8.4804,-3.1093 -3.784,-2.9247 -3.6864,-3.4096 -6.1577,-6.3815 -1.9123,-2.2991 -4.4393,-3.3861 -7.1301,-4.5669 -4.5436,-1.9936 -3.6272,0.5498 -9.0386,-1.6236 -6.6288,-2.6621 -7.4866,-3.7866 -17.0795,-7.1178 -6.0424,-2.0981 -12.6791,-3.6295 -19.2556,-4.8673 -32.2842,-6.0774 -58.9987,-2.105 -89.2866,0.5929 z" />
      <path
         id="path28"
         style="fill:#009800;fill-rule:evenodd"
         d="m 284.3551,87.4656 c 2.8571,1.8131 6.8957,7.1172 9.0733,9.8432 13.673,17.113 25.2292,33.0747 35.611,52.7572 l 11.0841,21.5417 c 0.4479,-1.1956 1.9845,7.149 0.2053,9.4534 -0.003,0.003 -7.363,3.7412 -9.8352,3.5525 -3.3241,-0.2537 -2.259,0.4344 -3.4062,-1.4081 -5.9368,0.7082 -19.9296,-8.3378 -25.1776,-10.9651 -3.3836,-1.694 -9.4243,-4.3836 -13.9243,-4.7017 -7.9307,-0.5611 -8.3855,3.7336 -12.6099,6.1874 0.9609,4.8233 20.0501,37.4816 -9.0692,43.3333 -6.7295,1.3521 -13.1683,3.0458 -18.8337,4.2133 -0.0198,-3.9776 -0.2676,-6.3511 0.1187,-8.3425 l 0.0211,-0.005 c 0.9841,7.9857 -0.4486,21.6067 -12.7359,19.6541 -1.4982,-0.2382 -3.3085,-0.7501 -5.2435,-1.1783 -1.611,-0.3569 -1.1593,-0.0956 -2.6512,-0.6764 l -2.432,-1.3417 c 0.8283,-2.612 1.2108,-3.287 3.1257,-5.0379 l -22.3413,5.212 c 0.4071,6.463 9.5451,-2.2171 27.3619,4.9071 3.447,1.3783 4.9887,2.8422 4.9614,6.5827 -6.0951,4.9915 -33.5286,1.7879 -41.1311,-1.0436 -3.4629,-1.2898 -7.8317,-3.9832 -11.2388,-4.9209 l -4.5966,1.5753 c 2.9638,5.2858 9.0193,6.4184 10.028,15.6014 -3.4753,2.5903 -2.4864,3.3424 -8.5253,4.0676 -9.3946,1.1292 -24.3999,-1.5971 -31.8902,-5.6242 l -6.4873,5.844 1.1607,0.6691 c -3.2663,1.9402 -4.8821,5.4782 -8.3672,9.9353 -2.1004,2.6871 -1.7255,1.1167 -2.4729,5.1099 5.2162,5.5467 8.1855,9.8971 19.1162,12.6476 9.3686,2.3573 18.8559,1.638 28.7202,0.5691 19.4052,-2.1036 32.0671,-10.0578 46.4895,-17.3934 17.9434,-9.1263 63.6104,-32.6701 78.6355,-48.4269 -0.1783,-0.1232 -0.4587,-0.5199 -0.5373,-0.3655 -0.0775,0.1519 -0.4205,-0.2801 -0.5244,-0.369 -3.0427,-2.5986 -2.4854,-2.8617 -2.8419,-5.8849 10.1152,-6.0099 3.1417,-5.5083 22.2959,-8.6895 3.8711,-1.9585 12.2711,-9.7618 16.1414,-12.9758 5.103,-4.2372 10.5843,-9.5503 15.654,-13.4781 8.0899,-6.2681 10.4254,-8.9397 17.6527,-16.5419 l 12.0138,-12.1416 c -1.1346,-3.7439 0.3819,-1.0086 -1.4164,-2.7567 -1.7117,-1.4324 -0.6092,-0.4957 -1.3389,-1.9357 -0.9052,-0.6078 -1.6439,-1.0935 -2.6249,-1.998 -1.8083,-1.6674 -1.7307,-1.6975 -2.7713,-3.5445 -2.5096,-0.6266 -17.9496,-14.2681 -20.6749,-16.372 -6.8472,-5.2853 -13.9606,-10.8802 -21.4579,-16.0351 -13.3853,-9.2041 -35.5719,-25.4538 -52.851,-21.0851 l 0.5379,1.9814 z" />
      <path
         id="path30"
         style="fill:#009800;fill-rule:evenodd"
         d="m 446.4986,121.8776 c 3.3615,0.9617 9.5107,7.822 11.6205,9.899 10.8345,10.6679 4.496,7.9526 9.0689,12.5468 3.0154,3.0293 8.5011,12.4058 10.7315,16.7753 3.2534,6.3728 2.7014,-1.0014 6.1649,8.8623 l 18.3676,45.8073 c 1.065,5.254 3.1534,10.7951 4.4186,16.3492 4.0501,17.7762 8.2637,38.9962 6.0094,57.8534 -0.3782,3.1644 -0.6046,6.9088 -1.2076,9.7157 -1.519,7.0693 -0.6884,3.5765 0.2336,7.4604 1.0389,4.3773 -3.9903,30.9636 -5.5184,36.2784 l -10.1493,33.12 c -0.2425,1.8087 -0.7576,2.9256 -1.1818,5.4734 -0.3772,2.2682 -0.6336,2.323 -2.2027,4.6963 -6.988,10.5709 -3.1678,5.6479 -8.2807,7.6321 -1.571,4.2195 -2.3173,8.3591 -4.0278,12.5433 -0.7781,1.9033 -1.394,3.9277 -3.044,5.1536 -2.0128,1.4951 -0.9579,-1.2158 -3.2828,3.4269 -1.1465,2.2893 -1.7303,4.3647 -3.443,5.9043 l -1.4831,1.047 c -2.3236,1.9287 -1.7322,2.7449 -2.9402,4.3735 -0.1017,0.1373 -0.2591,0.3272 -0.3709,0.4553 l -2.6171,2.4112 c -0.1215,0.1514 -3.3977,4.7076 -3.9538,3.6335 -0.0884,-0.171 -0.4188,0.1033 -0.6033,0.2097 -0.7145,5.9921 0.1773,3.9869 -1.7237,6.8221 l -2.3352,4.56 c -2.1322,1.445 1.6185,0.6188 -3.0158,-1.0571 0.154,8.7493 -8.093,15.0518 -11.6563,20.068 -2.4426,-0.8454 0.478,0.2365 -1.5055,-1.1701 -1.0423,-0.739 0.3212,-0.3297 -1.8698,-1.1934 -0.0192,3.8797 -1.104,3.9742 -3.1726,5.8689 -2.8614,2.6215 -11.5477,10.2954 -14.4743,10.8729 l -0.3901,5.139 -6.7151,0.4692 c -4.4415,2.4023 -15.5207,8.988 -19.6467,12.0799 l 18.258,-0.3882 c 0.6811,5.9035 -0.5063,11.6572 -0.3341,13.8546 0.4021,5.1358 -1.0464,2.6391 1.8412,3.4238 l 31.1107,-23.3218 c 15.1693,-11.8132 12.5739,-12.9626 20.4651,-18.6741 0.1348,-0.0976 0.3146,-0.2654 0.4475,-0.364 0.1322,-0.0976 0.3051,-0.2724 0.438,-0.3687 4.4491,-3.2258 4.4393,0.2412 4.7221,-9.3378 2.2197,0.8999 0.4059,-0.1197 2.9134,1.3672 2.977,-1.223 0.767,1.026 2.6249,-2.7896 1.0552,-5.6655 2.0881,-5.9955 4.8071,-10.086 11.5128,-17.3187 3.8294,0.1068 12.6974,-16.4653 1.713,-3.2012 3.3615,-5.8035 5.0115,-9.1502 4.9218,-9.9811 3.0649,-0.9585 6.6641,-8.3008 1.7187,-3.5063 2.8705,-6.3996 4.468,-9.7116 3.1413,-6.5132 5.9722,-13.0907 8.9432,-20.2296 10.7067,-25.7254 10.035,-33.8688 15.1173,-58.1202 4.8374,-23.0822 0.5558,-5.3714 2.9118,-23.7727 0.5624,-4.3918 1.6579,-7.0653 0.2532,-9.3004 -1.3087,-2.0823 0.2352,0.1682 -2.089,-1.6746 2.6108,-1.588 1.8491,-2.9558 1.7959,-7.3206 l -2.2015,-24.5486 c -3.4896,-20.7041 -8.7584,-38.2924 -13.1964,-58.4313 -1.0801,-4.9019 -2.0399,-10.1071 -2.5453,-14.81 -0.9563,-8.8985 -3.4805,-2.0503 -6.8892,-10.74 -16.4588,-41.9537 -14.4948,-27.0335 -18.8456,-35.2644 -2.0497,-3.877 -0.1414,-3.5507 -2.1687,-6.9113 l -8.6387,-8.9057 c -2.7421,-3.1918 -1.4278,-3.222 -3.1257,-6.0989 -2.8765,-4.8745 -12.2839,-10.164 -16.54,-18.3899 -1.9611,-3.7901 -2.2448,-1.3777 -4.5883,-4.572 -1.2274,-1.6733 -1.303,-4.1452 -2.2432,-5.7241 1.0948,10.9246 -3.9652,22.9915 -7.8881,31.0395 z" />
      <path
         id="path32"
         style="fill:#009800;fill-rule:evenodd"
         d="m 376.4242,228.3891 c 4.4954,0.0142 18.2505,13.1562 21.4658,15.9972 7.0646,6.2424 13.1364,11.4469 19.968,17.5864 12.4331,11.1742 28.5052,28.8185 44.3761,29.7503 6.2531,-0.2667 9.3812,-6.0381 9.5802,-12.4156 0.6824,-21.8629 -23.3615,-60.7016 -36.079,-77.7382 -3.8823,-5.2008 -19.1029,-22.4943 -19.7292,-26.7617 -5.9647,10.5356 -11.4709,18.5616 -18.5188,28.2467 -3.6959,5.0795 -17.6661,23.3433 -21.0631,25.3349 z" />
      <path
         id="path34"
         style="fill:#009800;fill-rule:evenodd"
         d="m 298.7687,505.4806 -1.2718,45.0821 c 7.5036,-0.1716 12.6083,-0.5954 19.3019,-1.5168 5.9326,-0.8165 12.3954,-2.5154 18.1923,-3.0056 l 0.1889,1.7463 c 1.4696,-2.9599 3.0629,-39.0881 3.3397,-45.7421 l -0.409,9.3363 c -6.7481,0.4238 -13.8313,0.4484 -20.3297,2.0952 -7.9381,2.0113 -9.6864,3.8896 -19.4899,3.3782 l 0.4776,-11.3736 z" />
      <path
         id="path36"
         style="fill:#009800;fill-rule:evenodd"
         d="m 150.4809,521.1153 c -0.775,-1.8997 -0.3911,-0.2979 0.8738,-1.1937 9.7469,1.6223 27.9851,5.9023 34.9029,10.0746 6.2251,-2.8038 11.4051,-12.5462 11.4249,-22.277 -6.8876,-1.5008 -15.9326,-5.2826 -22.8366,-7.6531 -6.7314,-2.3113 -1.7914,-2.3781 -6.6735,-5.0166 l -12.3075,-5.487 c -6.7358,5.9953 -11.0442,20.8707 -5.384,31.5528 z" />
      <path
         id="path38"
         style="fill:#009800;fill-rule:evenodd"
         d="m 218.6423,541.6485 c 0.4056,0.7765 -1.7019,0.6058 5.0131,2.1585 8.9559,2.0708 33.3571,7.2356 39.8619,6.1971 1.3745,-3.2827 2.3059,-24.6041 2.4382,-29.8958 -10.0001,1.8566 -26.6742,-1.4063 -35.1268,-3.6335 l 0.0406,-15.3923 c 0.5687,8.1718 -0.3052,16.4264 -2.5138,23.3099 -1.0067,3.1379 -2.6451,6.5258 -4.1415,9.3649 -1.7977,3.4115 -3.4949,4.6046 -5.5717,7.8912 z" />
      <path
         id="path40"
         style="fill:#009800;fill-rule:evenodd"
         d="m 408.0009,70.2559 c -0.8751,3.7604 -2.1173,9.4297 -1.0032,13.3303 2.6019,3.8558 6.4115,6.2399 10.0283,9.2531 3.0268,2.5219 7.3845,6.5853 10.1005,8.3975 5.6781,-1.138 2.3182,-2.4996 7.6723,-6.5932 0.1386,-0.1061 0.3483,-0.2409 0.4884,-0.3467 0.803,-0.6049 0.7403,-0.5366 1.4252,-1.0908 4.3946,-3.557 5.3144,-5.2451 12.9241,-5.537 -6.8725,-8.7905 -16.9273,-15.0336 -23.5743,-20.5732 -0.1336,-0.1111 -0.3068,-0.2868 -0.4374,-0.3986 -3.3121,-2.8252 -9.3067,-4.434 -15.1602,-4.7357 l -2.4637,8.2943 z" />
      <path
         id="path42"
         style="fill:#009800;fill-rule:evenodd"
         d="m 376.8232,532.7395 c 5.7263,-1.8795 13.1454,-6.2058 18.7499,-9.1255 1.1855,-0.6178 2.0213,-0.9324 3.3098,-1.6378 2.6621,-1.4567 1.3499,-0.1533 2.7421,-2.1189 l -28.6753,-0.0809 c -2.4048,0.3284 -1.645,-0.3023 -2.6549,1.1878 -1.6909,1.4796 -1.3367,10.592 -0.5057,12.4464 2.3563,1.2816 4.7064,0.3224 7.0341,-0.6711 z" />
    </g>
  </g>
</svg>
